<?xml version="1.0" standalone="no"?>
<!DOCTYPE svg PUBLIC "-//W3C//DTD SVG 20010904//EN"
 "http://www.w3.org/TR/2001/REC-SVG-20010904/DTD/svg10.dtd">
<svg version="1.0" xmlns="http://www.w3.org/2000/svg"
 width="2000.000000pt" height="2000.000000pt" viewBox="0 0 2000.000000 2000.000000"
 preserveAspectRatio="xMidYMid meet">

<g transform="translate(0.000000,2000.000000) scale(0.100000,-0.100000)"
fill="#000000" stroke="none">
<path d="M0 10000 l0 -10000 10000 0 10000 0 0 1489 0 1488 -72 58 c-77 61
-71 59 -171 43 -10 -2 -71 41 -151 107 l-133 110 -13 70 c-40 227 -170 491
-331 674 -35 40 -73 87 -84 105 -11 17 -77 115 -147 217 -167 245 -205 278
-331 287 l-67 5 45 -92 c25 -50 45 -94 45 -99 0 -4 27 -47 61 -97 110 -163
196 -366 233 -547 20 -95 39 -312 31 -339 -5 -16 13 -40 81 -112 49 -51 108
-113 132 -138 l44 -47 -78 -37 c-265 -128 -760 -540 -1099 -915 -169 -187
-306 -363 -350 -449 l-17 -35 -127 133 -126 133 -105 9 c-344 31 -684 192
-925 438 l-59 61 -1046 1 c-575 1 -1226 4 -1447 8 l-401 6 -39 30 c-48 38 -48
39 -558 1130 -361 773 -407 876 -407 920 -1 84 46 161 117 190 23 10 307 15
1238 20 l1208 8 -6 37 c-9 51 11 153 42 213 83 164 302 269 593 283 90 5 115
10 175 37 69 31 73 32 220 32 142 0 153 -1 208 -27 32 -15 83 -52 115 -82 31
-30 68 -57 82 -60 22 -6 28 -1 44 34 25 52 103 125 164 153 67 31 207 31 274
0 84 -38 134 -96 200 -226 l59 -119 36 51 c67 96 176 147 297 139 142 -9 229
-74 308 -232 l50 -99 46 46 c69 68 129 92 227 91 63 0 90 -5 130 -24 70 -34
125 -93 164 -176 l34 -72 101 -4 c122 -6 192 -28 288 -94 37 -25 89 -71 116
-102 27 -32 275 -347 552 -702 277 -355 509 -652 517 -660 11 -12 13 1336 13
8358 l0 8372 -10000 0 -10000 0 0 -10000z m14925 3088 c-3 -1531 -6 -2811 -6
-2845 l1 -63 -4965 0 -4965 0 0 390 0 390 4003 0 4002 0 48 75 c26 41 47 77
47 80 0 3 -13 5 -29 5 -17 0 -33 5 -36 10 -3 6 -15 10 -26 10 -31 0 -95 37
-117 67 -74 105 -28 250 90 285 24 6 47 18 51 25 12 20 136 18 143 -2 4 -8 12
-15 19 -15 7 0 15 7 19 15 3 8 15 15 26 15 20 0 20 5 20 329 0 208 -4 339 -11
359 -21 61 -28 62 -349 62 -317 0 -340 -4 -360 -56 -6 -14 -10 -176 -10 -375
l0 -349 -37 -15 c-97 -41 -139 -143 -99 -238 18 -44 78 -95 121 -103 19 -3 38
-10 41 -15 3 -5 -797 -9 -1906 -9 l-1910 0 6 40 7 40 -81 0 c-71 0 -83 3 -92
20 -7 14 -7 26 -1 39 13 24 11 182 -2 199 -7 8 -6 21 1 37 11 24 16 25 92 25
79 0 80 0 80 25 0 15 7 28 18 32 45 16 77 50 105 112 41 91 39 114 -19 172
-57 58 -98 79 -152 79 -53 0 -90 -14 -127 -49 -38 -36 -125 -50 -150 -25 -9 9
-31 16 -50 17 -68 2 -109 -74 -70 -130 16 -23 10 -123 -8 -123 -18 0 -47 -32
-47 -53 0 -24 27 -57 47 -57 20 0 19 -173 -2 -190 -19 -16 -19 -54 0 -70 10
-9 15 -32 15 -76 l0 -64 -260 0 c-143 0 -260 3 -259 8 0 4 19 21 41 37 99 72
148 182 148 335 l0 100 -300 0 c-322 0 -345 3 -398 53 -38 35 -52 72 -52 135
0 46 5 67 25 95 23 35 24 43 25 204 0 93 0 200 0 238 l-1 70 -19 -37 c-26 -48
-85 -96 -137 -110 -37 -10 -42 -16 -45 -42 -2 -24 -8 -32 -27 -34 -26 -4 -41
12 -41 43 0 16 -11 24 -47 34 -60 15 -136 90 -154 150 -10 35 -16 41 -39 41
-62 0 -63 62 -2 68 25 3 31 8 36 36 14 72 92 154 166 173 30 8 35 14 38 41 3
28 7 32 33 32 26 0 29 -3 29 -30 0 -24 5 -31 28 -36 69 -17 134 -67 166 -129
l16 -30 0 63 c0 49 -5 69 -21 92 -44 59 -41 154 5 215 53 69 56 70 404 73
l312 4 0 177 0 178 67 34 c287 145 472 466 449 777 -5 63 -2 95 10 133 12 35
15 71 12 117 -10 137 -88 239 -233 302 -42 18 -113 57 -157 87 -57 37 -85 50
-93 43 -7 -5 -15 -8 -18 -5 -4 3 -5 2 -2 -1 2 -4 -28 -43 -68 -88 -40 -45 -97
-111 -127 -146 -30 -34 -60 -68 -65 -74 -102 -112 -204 -236 -198 -239 5 -3
69 -30 143 -62 74 -31 151 -66 170 -76 70 -37 196 -90 235 -99 39 -9 151 0
188 15 15 6 17 1 17 -36 -1 -243 -177 -448 -414 -482 -188 -27 -374 57 -477
215 -35 55 -59 128 -76 231 -8 47 -9 48 -25 30 -17 -18 -155 -177 -193 -224
-11 -13 -84 -99 -162 -191 -79 -91 -143 -169 -143 -172 0 -3 20 -6 44 -6 98 0
149 -95 103 -188 -16 -33 -58 -52 -113 -52 -39 0 -51 5 -80 34 -28 28 -34 42
-34 78 -1 36 -3 40 -13 27 -7 -9 -31 -38 -54 -65 -48 -56 -265 -318 -399 -479
-83 -102 -248 -305 -352 -435 -24 -30 -52 -65 -62 -76 -17 -21 -17 -23 0 -52
10 -16 33 -41 52 -55 36 -28 119 -53 143 -43 13 5 15 -37 15 -358 0 -337 1
-369 20 -430 20 -63 72 -144 114 -177 12 -9 32 -26 46 -37 l25 -21 -637 -1
-638 0 0 2375 0 2375 4971 0 4970 0 -6 -2782z m-8432 -540 c134 -71 48 -273
-96 -226 -55 18 -82 57 -82 120 0 45 4 53 37 84 30 27 46 34 79 34 22 0 50 -5
62 -12z m6642 -393 c18 -9 37 -27 44 -41 7 -16 11 -103 11 -249 0 -146 -4
-233 -11 -249 -23 -49 -58 -56 -287 -56 -123 0 -222 4 -240 11 -59 20 -62 33
-62 296 0 259 3 269 60 292 14 5 121 10 238 10 173 1 220 -2 247 -14z m-4415
-395 c41 -41 69 -60 86 -60 24 0 24 -1 9 -29 -21 -42 -53 -61 -103 -61 -37 0
-50 6 -78 34 -27 27 -34 42 -34 73 0 38 31 103 49 103 6 0 37 -27 71 -60z
m-212 -61 c3 -28 -16 -43 -43 -33 -15 6 -21 45 -8 58 16 16 48 1 51 -25z
m-6074 -69 c36 -40 53 -80 42 -99 -4 -6 -133 -101 -286 -212 -211 -152 -278
-205 -270 -214 14 -17 2 -45 -19 -45 -12 0 -10 -5 8 -19 26 -20 24 -51 -4 -51
-13 0 -15 -75 -15 -673 l0 -674 161 -7 c403 -16 759 -82 843 -156 40 -35 56
-100 56 -226 0 -80 -1 -83 -30 -104 -37 -27 -121 -57 -235 -84 -89 -22 -90
-22 -97 -56 -5 -19 -58 -672 -118 -1450 -78 -994 -114 -1417 -123 -1422 -18
-12 -134 -47 -178 -54 l-39 -7 0 113 c0 144 -7 154 -83 134 -29 -8 -55 -14
-59 -14 -4 0 3 24 16 54 l24 54 -29 43 c-16 24 -29 47 -29 50 0 4 26 5 58 2
l58 -5 26 38 26 39 7 371 c4 210 4 374 -1 376 -5 3 -49 -10 -98 -28 -50 -18
-92 -32 -94 -30 -2 2 10 46 26 97 l29 94 -59 75 c-32 42 -58 79 -58 83 0 4 45
7 100 7 l100 0 35 54 36 53 14 624 c7 343 12 625 12 626 -1 0 -63 -3 -137 -9
-125 -9 -587 -4 -690 7 -292 34 -538 80 -663 126 -122 44 -127 49 -127 118 0
77 28 211 49 235 24 28 124 71 221 95 176 43 531 81 758 81 l112 0 0 671 0
671 -22 17 -22 18 21 18 21 18 -21 17 -21 17 22 19 c24 20 28 44 10 62 -13 13
5 42 28 42 7 0 156 104 331 230 174 127 323 230 329 230 6 0 28 -18 48 -40z
m5980 -126 c8 -21 -11 -44 -36 -44 -21 0 -33 22 -24 45 7 20 52 19 60 -1z m91
-114 c0 -20 -6 -26 -27 -28 -24 -3 -28 0 -28 21 0 30 9 39 35 35 14 -2 20 -10
20 -28z m4215 -260 c0 -5 -7 -10 -15 -10 -8 0 -15 5 -15 10 0 6 7 10 15 10 8
0 15 -4 15 -10z m170 0 c0 -5 -7 -10 -15 -10 -8 0 -15 5 -15 10 0 6 7 10 15
10 8 0 15 -4 15 -10z m6332 -837 c17 -15 18 -82 18 -1724 0 -1539 -2 -1709
-16 -1723 -14 -14 -133 -16 -1159 -16 -1026 0 -1145 2 -1159 16 -14 14 -16
184 -16 1721 0 1574 1 1708 17 1725 15 17 64 18 1156 18 1047 0 1142 -1 1159
-17z m-3752 -838 c0 -222 -2 -252 -21 -308 -50 -150 -171 -268 -318 -311 -50
-15 -531 -16 -5178 -16 l-5124 0 -61 21 c-155 52 -264 167 -312 328 -13 44
-16 103 -16 293 l0 238 5515 0 5515 0 0 -245z m-13819 -843 c44 15 79 25 79
24 0 -1 -11 -36 -25 -76 -14 -40 -25 -74 -25 -76 0 -1 20 -28 45 -60 25 -31
45 -60 45 -63 0 -3 -35 -5 -77 -4 l-78 2 -44 -65 c-24 -36 -46 -62 -50 -59 -3
4 -15 36 -26 73 l-20 67 -78 25 -78 25 65 48 66 49 0 79 0 80 61 -47 62 -47
78 25z m13487 -316 c42 -22 142 -140 142 -168 0 -5 -90 -8 -200 -8 -154 0
-200 3 -200 13 0 24 71 118 112 147 46 34 101 40 146 16z m-6261 -90 c-3 -8
-9 -31 -13 -50 l-6 -36 -217 0 c-948 0 -2749 -67 -3931 -145 -702 -47 -1860
-149 -2046 -180 -29 -5 -31 -4 -26 20 2 15 13 27 26 30 35 8 584 73 841 99
1436 150 3237 245 5130 269 99 1 195 4 214 5 25 1 32 -1 28 -12z m1501 -8 c-8
-13 -21 -33 -29 -46 l-14 -22 -398 2 -399 3 -25 43 -25 42 452 0 452 0 -14
-22z m1572 2 c743 -16 1405 -39 2100 -75 313 -16 784 -46 787 -49 1 -1 -3 -19
-9 -40 l-12 -38 -81 6 c-572 44 -2718 116 -3482 116 -256 0 -233 -6 -248 66
l-6 31 228 -3 c125 -3 451 -9 723 -14z m3660 -180 c291 -25 741 -68 798 -76
38 -6 42 -9 42 -35 0 -21 -5 -29 -17 -29 -10 0 -173 13 -363 30 -190 16 -429
34 -532 41 l-186 13 -15 38 -15 38 26 0 c15 0 133 -9 262 -20z m-841 -202
c-10 -40 -24 -116 -32 -168 -14 -92 -15 -94 -28 -65 -30 68 -8 237 38 287 34
38 40 21 22 -54z m640 46 c46 -59 65 -198 36 -274 -15 -41 -11 -52 -44 135
-11 66 -24 130 -27 143 -9 30 10 28 35 -4z m-263 -23 c106 -48 132 -176 53
-266 -75 -85 -222 -66 -275 37 -23 45 -15 134 16 177 26 37 90 71 135 71 17 0
48 -9 71 -19z m-3482 -203 c55 -16 138 -99 154 -154 7 -23 12 -60 12 -83 l0
-41 -1890 0 -1890 0 0 50 c0 102 63 192 159 226 51 19 3393 20 3455 2z m3774
-315 l-3 -48 -357 -3 c-345 -2 -358 -2 -358 17 0 10 -3 33 -6 50 l-6 31 366 0
367 0 -3 -47z m-14068 -193 l45 -69 83 -3 84 -3 -51 -66 -51 -65 25 -80 c14
-43 25 -80 25 -81 0 -1 -36 11 -81 27 l-81 30 -63 -45 c-35 -25 -66 -45 -70
-45 -3 0 -5 37 -4 82 l2 83 -66 49 c-37 28 -65 51 -63 53 1 2 38 13 81 25 l79
23 25 78 c14 42 28 77 31 77 3 0 25 -31 50 -70z m4703 -8 c26 -11 72 -44 102
-72 l54 -52 163 7 c90 3 195 6 233 5 39 0 1526 -4 3305 -8 l3235 -7 51 -28
c29 -16 72 -50 97 -75 48 -50 915 -1156 924 -1179 7 -19 -50 -68 -105 -90 -45
-17 -169 -18 -3359 -21 l-3313 -2 0 -88 c0 -151 -29 -228 -147 -392 -61 -84
-102 -123 -358 -344 -646 -555 -653 -560 -773 -585 -29 -6 -73 -11 -98 -11
-40 0 -53 -7 -112 -54 -144 -115 -303 -201 -482 -260 -158 -51 -279 -69 -470
-70 l-165 -1 -135 -107 c-74 -60 -137 -108 -140 -108 -3 0 -16 26 -29 58 -187
438 -882 1289 -1245 1524 -33 21 -61 40 -63 42 -2 2 64 56 145 120 l149 117 7
60 c3 33 8 70 12 84 l6 24 -444 3 c-440 3 -443 3 -502 27 -33 13 -74 38 -93
55 l-34 31 447 565 c245 310 467 588 494 617 89 100 22 93 841 93 l716 0 63
33 c58 29 71 32 154 32 83 0 98 -3 157 -32 63 -31 72 -33 177 -33 107 0 112 1
128 24 23 36 79 76 143 103 72 30 190 28 264 -5z m4531 -5609 c-2 -29 1 -31
42 -38 29 -4 44 -11 44 -21 0 -10 -14 -14 -57 -14 -32 -1 -75 -7 -95 -14 -21
-8 -38 -12 -38 -11 0 2 -3 10 -6 19 -4 11 5 18 35 27 46 14 45 13 30 40 -15
29 -4 51 23 47 19 -2 23 -9 22 -35z m234 -119 c7 -4 19 2 26 11 8 11 20 16 30
12 22 -9 20 -34 -4 -47 -20 -11 -20 -12 -3 -40 14 -25 15 -32 4 -42 -11 -11
-15 -9 -25 7 -6 11 -30 39 -53 63 -25 26 -40 49 -36 58 5 13 8 13 27 -1 11 -8
27 -18 34 -21z m-93 -13 c57 -32 109 -99 120 -157 6 -34 4 -41 -22 -61 -51
-42 -155 -67 -278 -68 -67 0 -125 5 -147 13 -37 13 -38 15 -38 61 0 88 38 160
109 207 75 49 171 51 256 5z m509 33 c10 -4 16 -18 16 -41 0 -33 -2 -35 -27
-30 -37 7 -63 -9 -63 -38 0 -21 5 -24 43 -27 41 -3 42 -4 45 -40 l3 -38 -45 0
-45 0 -3 -107 -3 -108 -37 -3 -38 -3 0 110 0 111 -30 0 c-28 0 -30 2 -30 40 0
38 2 40 30 40 29 0 30 2 30 43 1 44 12 66 45 85 22 12 84 16 109 6z m1262 -23
c15 -29 5 -62 -22 -71 -51 -19 -94 41 -58 81 24 26 65 21 80 -10z m124 -97 l0
-115 58 50 c50 44 64 51 100 51 23 0 42 -4 42 -8 0 -4 -29 -36 -64 -71 l-65
-64 65 -71 c35 -38 64 -74 64 -78 0 -4 -19 -8 -42 -8 -38 0 -48 6 -100 57
l-58 57 0 -57 0 -57 -40 0 -40 0 0 215 0 215 40 0 40 0 0 -116z m-5220 -109
l0 -195 -25 0 c-14 0 -25 5 -25 10 0 6 -13 4 -30 -5 -66 -34 -140 -9 -171 58
-62 137 50 275 171 212 l30 -16 0 66 c0 63 1 65 25 65 l25 0 0 -195z m1960 0
l0 -195 -24 0 c-13 0 -26 5 -28 12 -3 7 -13 5 -31 -7 -34 -22 -108 -16 -139
11 -46 42 -62 132 -34 199 29 68 125 97 180 54 l26 -20 0 70 c0 69 1 71 25 71
l25 0 0 -195z m250 125 l0 -70 33 20 c61 38 136 19 172 -43 26 -44 25 -134 -3
-179 -37 -59 -108 -75 -169 -38 -27 16 -33 17 -33 5 0 -8 -9 -15 -20 -15 -19
0 -20 7 -20 195 0 188 1 195 20 195 18 0 20 -7 20 -70z m795 60 c4 -6 -5 -24
-19 -41 -14 -16 -31 -48 -37 -69 -9 -29 -18 -40 -31 -40 -15 0 -18 5 -13 23 4
12 9 30 11 39 3 11 -2 17 -18 20 -15 2 -23 10 -23 23 0 23 33 33 47 13 7 -10
13 -7 31 14 23 28 42 35 52 18z m-2310 -30 c0 -18 -6 -26 -23 -28 -13 -2 -25
3 -28 12 -10 26 4 48 28 44 17 -2 23 -10 23 -28z m-428 -80 c37 -22 60 -61 65
-110 l3 -35 -112 -3 c-123 -3 -130 -7 -93 -55 28 -35 81 -45 128 -23 30 15 37
15 49 3 22 -21 -29 -50 -97 -55 -94 -6 -152 51 -152 148 0 88 56 150 137 150
22 0 54 -9 72 -20z m279 5 c25 -10 34 -20 32 -32 -4 -20 -18 -21 -65 -2 -44
18 -88 3 -88 -30 0 -20 9 -27 69 -46 77 -25 96 -43 96 -91 0 -24 -8 -39 -32
-59 -28 -24 -39 -27 -89 -23 -72 5 -114 30 -99 58 10 20 11 20 48 0 61 -33
122 -21 122 24 0 25 -19 36 -97 56 -76 19 -97 88 -42 134 36 30 90 34 145 11z
m392 -5 c26 -16 32 -17 32 -5 0 8 9 15 20 15 19 0 20 -7 20 -164 0 -184 -6
-203 -76 -226 -74 -25 -186 9 -164 49 9 18 11 18 50 -1 70 -35 132 -9 146 61
l7 32 -42 -22 c-105 -55 -205 38 -181 169 18 98 106 141 188 92z m356 -1 c26
-20 26 -22 26 -145 l0 -124 -25 0 c-24 0 -24 0 -27 112 -3 109 -4 113 -29 127
-23 13 -30 12 -65 -5 l-39 -19 -3 -107 c-3 -107 -3 -108 -27 -108 l-25 0 0
140 0 140 25 0 c15 0 25 -6 25 -15 0 -12 6 -11 33 5 42 26 97 26 131 -1z m293
1 c37 -22 60 -61 65 -110 l3 -35 -112 -3 c-123 -3 -130 -7 -93 -55 28 -35 81
-45 128 -23 30 15 37 15 49 3 22 -21 -29 -50 -97 -55 -94 -6 -152 51 -152 148
0 88 56 150 137 150 22 0 54 -9 72 -20z m2366 8 c4 -10 7 -10 18 0 16 15 99
16 99 1 0 -6 -8 -24 -17 -40 -12 -21 -25 -29 -45 -29 -44 0 -58 -31 -58 -132
l0 -88 -40 0 -40 0 0 150 0 150 39 0 c22 0 41 -5 44 -12z m323 -7 c37 -22 64
-76 64 -125 l0 -36 -100 0 c-55 0 -100 -3 -100 -7 0 -3 7 -15 17 -25 18 -20
73 -24 105 -7 17 9 25 7 46 -14 l25 -25 -34 -21 c-25 -15 -51 -21 -98 -21 -60
0 -65 2 -101 38 -42 42 -57 89 -46 147 8 38 48 92 80 105 38 15 109 11 142 -9z
m318 -12 c34 -30 56 -79 56 -126 0 -22 -3 -23 -100 -23 -81 0 -100 -3 -100
-15 0 -32 67 -45 116 -23 23 11 28 10 45 -11 11 -13 19 -27 19 -31 0 -17 -71
-40 -122 -40 -92 0 -148 56 -148 150 0 93 56 150 147 150 44 0 58 -5 87 -31z
m164 19 c9 -9 15 -9 24 0 17 17 95 15 128 -5 89 -52 92 -211 6 -264 -34 -21
-106 -25 -137 -9 -18 10 -19 7 -19 -60 l0 -70 -40 0 -40 0 0 210 0 210 33 0
c18 0 38 -5 45 -12z m332 -139 l0 -150 -37 3 -38 3 -3 134 c-1 74 0 141 2 148
3 7 21 13 41 13 l35 0 0 -151z m-4400 1 l0 -140 -25 0 -25 0 0 140 0 140 25 0
25 0 0 -140z m1853 33 c22 -57 43 -103 46 -103 3 0 24 46 47 103 36 90 44 102
68 105 14 2 26 1 26 -3 0 -25 -147 -355 -167 -372 -24 -23 -93 -33 -93 -14 0
25 14 41 36 41 18 0 29 9 40 33 16 32 15 35 -40 169 -31 75 -56 140 -56 143 0
4 12 5 26 3 24 -3 31 -15 67 -105z m886 -65 c-48 -91 -125 -138 -226 -138 -35
0 -80 7 -101 15 -34 15 -112 81 -112 95 0 4 51 4 114 2 123 -5 230 12 296 48
39 20 48 13 29 -22z"/>
<path d="M13723 15694 c-56 -28 -73 -68 -73 -170 0 -102 16 -141 72 -171 30
-16 64 -18 363 -18 326 0 330 0 366 23 52 32 69 74 69 169 0 89 -18 130 -72
163 -31 19 -51 20 -363 20 -282 0 -335 -3 -362 -16z m245 -171 l2 -173 -102 0
c-119 0 -160 15 -190 71 -28 51 -25 165 5 210 37 55 77 70 187 67 l95 -3 3
-172z m461 159 c52 -26 72 -61 78 -134 7 -79 -7 -125 -48 -164 l-30 -29 -225
-3 -224 -3 0 175 0 176 208 0 c177 0 212 -3 241 -18z"/>
<path d="M6375 14586 c-97 -42 -164 -167 -141 -261 l7 -26 35 43 c20 24 43 52
52 63 10 11 50 60 90 108 l73 87 -43 0 c-24 -1 -56 -7 -73 -14z"/>
<path d="M7006 14588 c3 -5 10 -6 15 -3 13 9 11 12 -6 12 -8 0 -12 -4 -9 -9z"/>
<path d="M12743 12756 c-27 -24 -28 -25 -11 -53 34 -58 32 -104 -6 -194 -9
-21 29 -59 59 -59 56 0 95 67 95 162 0 66 -17 115 -51 147 -30 27 -51 27 -86
-3z"/>
<path d="M13153 12628 c0 -47 -5 -87 -16 -110 l-16 -38 58 0 c75 0 122 29 135
83 19 75 -39 137 -128 137 l-34 0 1 -72z"/>
<path d="M6934 12644 c-41 -26 -77 -72 -88 -111 -6 -19 -3 -22 31 -25 31 -2
39 -7 41 -27 4 -26 -12 -41 -45 -41 -54 0 5 -94 84 -134 43 -21 43 -21 43 19
0 23 6 38 18 44 28 15 52 -5 52 -44 0 -19 2 -35 5 -35 23 0 91 48 115 82 40
55 39 76 -2 80 -29 3 -33 6 -33 33 0 27 4 30 33 33 17 2 32 8 32 13 0 32 -60
103 -107 128 -33 17 -43 13 -43 -16 0 -39 -13 -55 -41 -51 -20 2 -25 10 -27
41 -4 44 -14 46 -68 11z m139 -135 c26 -41 -22 -91 -65 -68 -21 11 -24 59 -6
77 17 17 58 11 71 -9z"/>
<path d="M13410 12500 l0 -139 -66 -3 c-56 -3 -69 -7 -82 -25 l-14 -23 136 0
c77 0 136 4 136 9 0 16 -31 41 -51 41 -18 0 -19 8 -19 140 0 133 -1 140 -20
140 -19 0 -20 -7 -20 -140z"/>
<path d="M7453 12572 c-53 -22 -84 -51 -111 -106 -21 -41 -22 -60 -25 -280 -2
-233 -2 -237 18 -230 11 4 111 9 223 11 l202 5 0 148 0 148 -34 12 c-103 34
-166 126 -166 242 l0 68 -32 -1 c-18 0 -52 -8 -75 -17z"/>
<path d="M13013 12384 c-12 -8 -46 -18 -77 -21 -51 -5 -56 -8 -56 -29 0 -23 2
-24 85 -24 l85 0 0 45 c0 49 -4 52 -37 29z"/>
<path d="M8613 11363 c-8 -2 -13 -22 -13 -44 0 -39 0 -39 40 -39 36 0 40 2 40
26 0 51 -27 74 -67 57z"/>
<path d="M14012 11108 c-11 -15 -72 -135 -72 -143 0 -3 150 -5 333 -5 l333 0
37 75 c20 42 37 78 37 80 0 3 -148 5 -329 5 -251 0 -331 -3 -339 -12z"/>
<path d="M17110 10109 c-65 -26 -81 -110 -31 -160 40 -39 89 -40 132 -1 81 72
-1 202 -101 161z"/>
<path d="M18950 10113 c-54 -20 -80 -80 -57 -135 38 -91 187 -64 187 34 0 72
-67 124 -130 101z"/>
<path d="M17970 10059 c-30 -5 -92 -27 -136 -49 -355 -174 -383 -676 -50 -892
85 -55 168 -78 281 -78 158 0 288 57 387 169 222 255 145 654 -156 801 -112
55 -204 68 -326 49z"/>
<path d="M17885 8956 c-360 -70 -642 -326 -752 -683 -25 -82 -27 -101 -27
-268 0 -168 2 -186 28 -270 109 -355 380 -605 739 -681 87 -18 284 -18 379 0
356 69 639 328 744 683 35 120 44 318 19 448 -35 186 -119 348 -253 487 -133
137 -275 222 -452 269 -107 28 -320 35 -425 15z"/>
<path d="M17079 7181 c-31 -32 -38 -75 -17 -114 18 -34 40 -46 81 -47 51 0 76
15 93 57 42 99 -80 180 -157 104z"/>
<path d="M18923 7195 c-27 -19 -46 -75 -37 -109 10 -40 50 -66 99 -66 86 0
127 100 66 161 -34 33 -91 40 -128 14z"/>
<path d="M3750 6638 c-41 -50 -79 -98 -83 -105 -7 -11 30 -13 200 -13 l208 0
50 77 c28 41 58 89 68 104 l19 29 -194 0 -193 0 -75 -92z"/>
<path d="M7173 6693 c-9 -21 -19 -71 -21 -110 l-4 -73 244 0 244 0 23 98 c13
53 26 103 28 110 4 9 -49 12 -246 12 l-252 0 -16 -37z"/>
<path d="M7926 6688 c-3 -24 -8 -73 -11 -110 l-7 -68 296 0 c261 0 296 2 296
16 0 17 -18 148 -26 182 l-4 22 -270 0 -269 0 -5 -42z"/>
<path d="M8721 6713 c0 -10 15 -58 32 -108 l32 -90 308 -3 c169 -1 307 0 307
2 0 2 -22 52 -50 110 l-49 106 -291 0 c-270 0 -290 -1 -289 -17z"/>
<path d="M9550 6723 c0 -4 27 -53 61 -110 l61 -103 289 0 c159 0 289 3 289 6
0 3 -34 53 -76 110 l-76 104 -274 0 c-151 0 -274 -3 -274 -7z"/>
<path d="M10476 6718 c4 -7 36 -57 70 -110 l63 -98 271 0 c148 0 270 3 270 8
0 4 -24 52 -53 107 l-52 100 -288 3 c-230 2 -287 0 -281 -10z"/>
<path d="M11360 6724 c0 -4 30 -53 67 -110 l66 -104 310 0 c246 0 307 3 300
13 -5 6 -44 56 -87 110 l-76 97 -290 0 c-160 0 -290 -3 -290 -6z"/>
<path d="M12302 6698 c13 -18 51 -68 82 -110 l58 -78 326 0 325 0 -19 23 c-11
12 -56 61 -99 110 l-78 87 -310 0 -309 0 24 -32z"/>
<path d="M3564 6383 c-27 -32 -68 -82 -92 -110 l-44 -53 208 0 209 0 70 83
c39 45 79 94 88 110 l17 27 -204 0 -204 0 -48 -57z"/>
<path d="M7130 6394 c-7 -25 -30 -72 -51 -105 l-39 -59 279 0 279 0 16 73 c9
39 19 87 22 105 l7 32 -250 0 -250 0 -13 -46z"/>
<path d="M7910 6436 c0 -12 -21 -164 -25 -183 l-5 -23 325 0 c303 0 325 1 325
18 -1 9 -9 55 -18 102 l-18 85 -292 3 c-161 1 -292 0 -292 -2z"/>
<path d="M8819 6335 l36 -105 322 0 323 0 -52 105 -53 105 -306 0 -307 0 37
-105z"/>
<path d="M9769 6338 l48 -103 285 -3 286 -2 -60 105 -61 105 -273 0 -273 0 48
-102z"/>
<path d="M10687 6352 c26 -48 53 -95 58 -105 10 -16 34 -17 313 -15 l303 3
-71 103 -71 102 -290 0 -290 0 48 -88z"/>
<path d="M11537 6411 c10 -15 41 -63 68 -104 l50 -77 323 0 323 0 -83 104 -83
105 -308 0 -309 1 19 -29z"/>
<path d="M12497 6426 c4 -7 40 -54 78 -104 l70 -91 339 -1 338 0 -33 38 c-18
20 -60 67 -95 105 l-62 67 -321 0 c-271 0 -321 -2 -314 -14z"/>
<path d="M3252 6015 l-113 -125 256 0 256 0 18 43 c10 23 39 77 65 120 25 43
46 81 46 83 0 2 -93 4 -207 4 l-208 0 -113 -125z"/>
<path d="M6951 6103 c-5 -21 -12 -52 -15 -68 l-7 -30 83 0 c100 0 163 -20 242
-75 l57 -40 1150 0 c916 0 1150 3 1147 13 -2 6 -21 63 -43 125 l-40 112 -1282
0 -1282 0 -10 -37z"/>
<path d="M9850 6137 c0 -2 24 -57 53 -123 l54 -119 308 -3 307 -2 -14 22 c-8
13 -43 69 -78 126 l-65 102 -282 0 c-156 0 -283 -1 -283 -3z"/>
<path d="M10849 6018 l66 -123 318 -3 c174 -1 317 0 317 3 0 3 -36 59 -80 125
l-80 120 -304 0 -304 0 67 -122z"/>
<path d="M11732 6118 c9 -13 45 -69 82 -125 l67 -103 335 0 c266 0 334 3 328
13 -4 6 -48 63 -97 125 l-88 112 -321 0 -320 0 14 -22z"/>
<path d="M12803 6018 l95 -123 351 -3 c193 -1 351 0 351 3 0 3 -48 59 -107
125 l-108 120 -338 0 -338 0 94 -122z"/>
<path d="M6503 5997 c-56 -45 -101 -86 -99 -92 2 -6 44 -10 102 -10 l99 0 27
75 c35 98 35 110 1 109 -19 0 -60 -26 -130 -82z"/>
<path d="M10496 1279 c-45 -35 -31 -102 25 -121 8 -3 29 0 46 7 56 24 54 104
-3 125 -34 13 -38 13 -68 -11z"/>
<path d="M10692 1278 c-20 -20 -14 -66 9 -79 44 -23 93 26 69 71 -12 23 -58
28 -78 8z"/>
<path d="M7265 1231 c-40 -17 -59 -49 -59 -102 0 -41 5 -55 27 -76 32 -33 86
-36 117 -8 27 25 30 143 3 168 -23 20 -63 28 -88 18z"/>
<path d="M9208 1225 c-65 -36 -60 -160 8 -193 34 -16 37 -15 72 3 37 20 37 20
40 92 3 66 1 73 -20 87 -36 23 -71 27 -100 11z"/>
<path d="M9690 1233 c-42 -16 -60 -46 -60 -100 0 -68 11 -88 53 -102 68 -23
117 20 117 101 0 35 -6 53 -22 72 -24 26 -62 39 -88 29z"/>
<path d="M7559 1211 c-51 -52 -42 -61 61 -61 l90 0 -13 33 c-25 61 -91 74
-138 28z"/>
<path d="M8274 1230 c-35 -14 -54 -50 -54 -103 0 -38 5 -53 25 -72 30 -31 82
-33 119 -4 23 18 26 28 26 78 0 47 -4 61 -22 79 -28 25 -66 34 -94 22z"/>
<path d="M8879 1211 c-51 -52 -42 -61 61 -61 l90 0 -13 33 c-25 61 -91 74
-138 28z"/>
<path d="M11575 1190 c-10 -11 -16 -23 -13 -26 3 -3 32 -4 64 -2 l59 3 -22 23
c-28 27 -64 28 -88 2z"/>
<path d="M11888 1199 c-10 -5 -18 -17 -18 -24 0 -11 14 -15 55 -15 58 0 66 7
37 33 -21 19 -49 21 -74 6z"/>
<path d="M12220 1197 c-79 -40 -40 -162 46 -141 25 6 54 49 54 79 0 17 -52 75
-67 75 -4 0 -19 -6 -33 -13z"/>
</g>
</svg>
